<?xml version="1.0" encoding="UTF-8" standalone="no"?>
<svg
   width="40"
   height="40"
   viewBox="0 0 40 40"
   fill="none"
   version="1.1"
   id="svg1"
   xmlns="http://www.w3.org/2000/svg"
   xmlns:svg="http://www.w3.org/2000/svg">
  <circle
     cx="20"
     cy="20"
     r="20"
     fill="#465E98"
     id="circle1" />
  <path
     d="m 28.333333,11.666667 v 3.333333 a 1.6666667,1.6666667 0 0 1 -1.666666,1.666667 h -1.666667 v 5 a 5,5 0 0 1 -5,5 H 15 v 1.666666 A 1.6666667,1.6666667 0 0 1 13.333333,30 H 10 V 11.666667 h 3.333333 a 1.6666667,1.6666667 0 0 1 1.666667,1.666666 v 1.666667 h 5 a 5,5 0 0 1 5,5 v -5 h -1.666667 a 1.6666667,1.6666667 0 0 1 -1.666666,-1.666667 v -3.333333 h 6.666666 z"
     fill="#ffffff"
     id="path1" />
</svg>